<svg id="visual" viewBox="0 0 960 540" width="960" height="540" xmlns="http://www.w3.org/2000/svg" xmlns:xlink="http://www.w3.org/1999/xlink" version="1.1"><path d="M0 366L22.8 367.8C45.7 369.7 91.3 373.3 137 385C182.7 396.7 228.3 416.3 274 411.2C319.7 406 365.3 376 411.2 365.3C457 354.7 503 363.3 548.8 380.7C594.7 398 640.3 424 686 433.5C731.7 443 777.3 436 823 436.8C868.7 437.7 914.3 446.3 937.2 450.7L960 455L960 541L937.2 541C914.3 541 868.7 541 823 541C777.3 541 731.7 541 686 541C640.3 541 594.7 541 548.8 541C503 541 457 541 411.2 541C365.3 541 319.7 541 274 541C228.3 541 182.7 541 137 541C91.3 541 45.7 541 22.8 541L0 541Z" fill="#e7aaf7" stroke-linecap="round" stroke-linejoin="miter"></path></svg>